<svg xmlns="http://www.w3.org/2000/svg" viewBox="0 0 1200 800">
  <rect width="1200" height="800" fill="#101018"/>
  <g fill="#2b2b31" stroke="#1e1f24" stroke-width="3" opacity="0.96">
    <polygon points="70,80 170,70 190,170 90,190"/>
    <polygon points="260,120 360,100 390,210 280,240"/>
    <polygon points="500,80 620,90 610,210 490,220"/>
    <polygon points="760,90 860,120 850,220 740,210"/>
    <polygon points="960,80 1100,110 1080,230 950,220"/>
    <polygon points="130,320 240,300 260,410 150,430"/>
    <polygon points="350,340 470,320 490,430 370,450"/>
    <polygon points="620,320 730,300 760,420 650,450"/>
    <polygon points="840,350 960,330 980,450 860,470"/>
    <polygon points="1040,330 1150,350 1130,470 1020,450"/>
    <polygon points="80,560 210,540 230,680 100,700"/>
    <polygon points="310,560 430,530 460,680 330,710"/>
    <polygon points="570,560 690,540 720,690 590,710"/>
    <polygon points="820,560 950,540 980,690 840,710"/>
    <polygon points="1030,560 1160,540 1180,690 1050,710"/>
  </g>
  <g fill="#d8d8d8" stroke="#bdbdbd" stroke-width="2">
    <polygon points="430,230 500,210 530,280 460,310"/>
    <polygon points="705,250 780,230 810,300 730,330"/>
    <polygon points="980,280 1060,260 1080,340 1000,360"/>
    <polygon points="200,500 280,470 310,550 230,580"/>
    <polygon points="520,470 600,450 620,530 550,560"/>
  </g>
  <polygon points="140,450 210,430 240,500 170,530" fill="#d5c48f" stroke="#c5b47f" stroke-width="2"/>
</svg>
